<?xml version="1.0" encoding="UTF-8" standalone="no"?>
<!-- Created with Inkscape (http://www.inkscape.org/) -->

<svg
   xmlns:dc="http://purl.org/dc/elements/1.1/"
   xmlns:cc="http://creativecommons.org/ns#"
   xmlns:rdf="http://www.w3.org/1999/02/22-rdf-syntax-ns#"
   xmlns:svg="http://www.w3.org/2000/svg"
   xmlns="http://www.w3.org/2000/svg"
   xmlns:sodipodi="http://sodipodi.sourceforge.net/DTD/sodipodi-0.dtd"
   xmlns:inkscape="http://www.inkscape.org/namespaces/inkscape"
   width="100mm"
   height="100mm"
   viewBox="0 0 100 100"
   version="1.1"
   id="svg4822"
   sodipodi:docname="draft2.svg"
   inkscape:version="0.92.1 r15371">
  <defs
     id="defs4816" />
  <sodipodi:namedview
     id="base"
     pagecolor="#ffffff"
     bordercolor="#666666"
     borderopacity="1.0"
     inkscape:pageopacity="0.0"
     inkscape:pageshadow="2"
     inkscape:zoom="0.98994949"
     inkscape:cx="294.34789"
     inkscape:cy="281.53855"
     inkscape:document-units="mm"
     inkscape:current-layer="layer1"
     showgrid="false"
     inkscape:window-width="1375"
     inkscape:window-height="876"
     inkscape:window-x="65"
     inkscape:window-y="24"
     inkscape:window-maximized="1"
     inkscape:measure-start="645.714,657.143"
     inkscape:measure-end="585.826,561.26" />
  <metadata
     id="metadata4819">
    <rdf:RDF>
      <cc:Work
         rdf:about="">
        <dc:format>image/svg+xml</dc:format>
        <dc:type
           rdf:resource="http://purl.org/dc/dcmitype/StillImage" />
        <dc:title></dc:title>
      </cc:Work>
    </rdf:RDF>
  </metadata>
  <g
     inkscape:label="Layer 1"
     inkscape:groupmode="layer"
     id="layer1"
     transform="translate(0,-197)">
    <rect
       style="display:none;opacity:1;fill:#752c7e;fill-opacity:0.39215686;fill-rule:nonzero;stroke:#000000;stroke-width:0;stroke-miterlimit:4;stroke-dasharray:none;stroke-dashoffset:0;stroke-opacity:1"
       id="rect5367"
       width="100"
       height="100"
       x="55"
       y="98.5" />
    <rect
       style="display:none;opacity:1;fill:#752c7e;fill-opacity:0.39215686;fill-rule:nonzero;stroke:#000000;stroke-width:0;stroke-miterlimit:4;stroke-dasharray:none;stroke-dashoffset:0;stroke-opacity:1"
       id="rect5367-9"
       width="50"
       height="50"
       x="80"
       y="123.5" />
    <rect
       style="display:none;opacity:1;fill:#752c7e;fill-opacity:0.39215686;fill-rule:nonzero;stroke:#000000;stroke-width:0;stroke-miterlimit:4;stroke-dasharray:none;stroke-dashoffset:0;stroke-opacity:1"
       id="rect5367-9-7"
       width="50"
       height="50"
       x="55"
       y="98.5" />
    <path
       style="opacity:1;fill:#333333;fill-opacity:1;fill-rule:nonzero;stroke:#000000;stroke-width:0;stroke-miterlimit:4;stroke-dasharray:none;stroke-dashoffset:0;stroke-opacity:1"
       d="m 23.284287,211.79134 a 38.499589,38.5 0 0 0 4e-6,54.44727 l 27.223356,27.22364 27.223346,-27.22364 a 38.499589,38.5 0 0 0 9.93063,-17.26814 9.6249985,9.6248973 89.781774 0 0 -6.805843,-11.7883 9.6249985,9.6248973 89.781774 0 0 -11.788173,6.80591 9.6249985,9.6248973 89.781774 0 0 -0.03095,0.13394 19.249795,19.249999 0 0 1 -4.917345,8.50479 19.249795,19.249999 0 0 1 -27.223351,0 19.249795,19.249999 0 0 1 -4e-6,-27.22364 19.249795,19.249999 0 0 1 27.223355,0 9.6248967,9.6249991 0.43076076 0 0 13.611677,0 9.6248967,9.6249991 0.43076076 0 0 0,-13.61182 9.6248967,9.6249991 0.43076076 0 0 -0.607447,-0.54951 38.499589,38.5 0 0 0 -53.839241,0.5495 z"
       id="path5403"
       inkscape:connector-curvature="0" />
    <path
       inkscape:connector-curvature="0"
       transform="scale(0.26458333)"
       d="M 396.84961,372.2832 A 188.97638,188.97638 0 0 0 207.87305,561.25977 188.97638,188.97638 0 0 0 396.84961,750.23633 188.97638,188.97638 0 0 0 585.82617,561.25977 188.97638,188.97638 0 0 0 396.84961,372.2832 Z m 0,94.48828 a 94.488189,94.488189 0 0 1 94.48828,94.48829 94.488189,94.488189 0 0 1 -94.48828,94.48828 94.488189,94.488189 0 0 1 -94.48828,-94.48828 94.488189,94.488189 0 0 1 94.48828,-94.48829 z"
       style="display:none;opacity:1;fill:#752c7e;fill-opacity:0.39215686;fill-rule:nonzero;stroke:#000000;stroke-width:0;stroke-miterlimit:4;stroke-dasharray:none;stroke-dashoffset:0;stroke-opacity:1"
       id="path5460"
       inkscape:label="ring-back" />
    <rect
       y="135.99998"
       x="129.99982"
       height="12.5"
       width="25"
       id="rect5641"
       style="display:none;opacity:1;fill:#752c7e;fill-opacity:0.39215686;fill-rule:nonzero;stroke:#000000;stroke-width:0;stroke-miterlimit:4;stroke-dasharray:none;stroke-dashoffset:0;stroke-opacity:1" />
    <circle
       inkscape:label="center-circle"
       id="circle5491"
       r="25"
       cy="148.5"
       cx="105"
       style="display:none;opacity:1;fill:#752c7e;fill-opacity:0.39215686;fill-rule:nonzero;stroke:#000000;stroke-width:0;stroke-miterlimit:4;stroke-dasharray:none;stroke-dashoffset:0;stroke-opacity:1" />
    <rect
       y="4.1824794"
       x="-231.05925"
       height="12.5"
       width="25"
       id="rect5641-5"
       style="display:none;opacity:1;fill:#752c7e;fill-opacity:0.39215686;fill-rule:nonzero;stroke:#000000;stroke-width:0;stroke-miterlimit:4;stroke-dasharray:none;stroke-dashoffset:0;stroke-opacity:1"
       transform="rotate(-120)" />
  </g>
</svg>
